<svg width="22" height="24" viewBox="0 0 22 24" fill="none" xmlns="http://www.w3.org/2000/svg">
<path d="M21.0599 8.69392L14.5644 1.60794C12.5941 -0.535979 9.40494 -0.535979 7.43461 1.60794L0.93912 8.69392C0.335496 9.34891 -0.00283926 10.2401 -0.000475983 11.1689V21.5469C0.00154354 22.9015 1.00821 23.9988 2.24996 23.9999H19.7491C20.9908 23.9988 21.9975 22.9015 21.9995 21.5469V11.1689C22.0019 10.2401 21.6636 9.34891 21.0599 8.69392ZM19.2495 20.9999H14.6662V17.8179C14.6662 15.7093 13.0993 13.9999 11.1663 13.9999H10.8327C8.8998 13.9999 7.33286 15.7093 7.33286 17.8179V20.9999H2.74952V11.1689C2.74982 11.0363 2.79786 10.9092 2.88337 10.8149L9.37885 3.72893C10.2737 2.75248 11.7247 2.7523 12.6198 3.72847C12.6199 3.72861 12.6201 3.72879 12.6202 3.72893L19.1157 10.8149C19.2011 10.9092 19.2492 11.0363 19.2495 11.1689V20.9999H19.2495Z" fill="#FFFEFE"/>
</svg>
